<svg width="22" height="22" viewBox="0 0 22 22" fill="none" xmlns="http://www.w3.org/2000/svg">
<path d="M10.5469 5.10938C7.54688 5.10938 5.15625 7.54688 5.15625 10.5C5.15625 13.5 7.54688 15.8906 10.5469 15.8906C13.5 15.8906 15.9375 13.5 15.9375 10.5C15.9375 7.54688 13.5 5.10938 10.5469 5.10938ZM10.5469 14.0156C8.625 14.0156 7.03125 12.4688 7.03125 10.5C7.03125 8.57812 8.57812 7.03125 10.5469 7.03125C12.4688 7.03125 14.0156 8.57812 14.0156 10.5C14.0156 12.4688 12.4688 14.0156 10.5469 14.0156ZM17.3906 4.92188C17.3906 4.21875 16.8281 3.65625 16.125 3.65625C15.4219 3.65625 14.8594 4.21875 14.8594 4.92188C14.8594 5.625 15.4219 6.1875 16.125 6.1875C16.8281 6.1875 17.3906 5.625 17.3906 4.92188ZM20.9531 6.1875C20.8594 4.5 20.4844 3 19.2656 1.78125C18.0469 0.5625 16.5469 0.1875 14.8594 0.09375C13.125 0 7.92188 0 6.1875 0.09375C4.5 0.1875 3.04688 0.5625 1.78125 1.78125C0.5625 3 0.1875 4.5 0.09375 6.1875C0 7.92188 0 13.125 0.09375 14.8594C0.1875 16.5469 0.5625 18 1.78125 19.2656C3.04688 20.4844 4.5 20.8594 6.1875 20.9531C7.92188 21.0469 13.125 21.0469 14.8594 20.9531C16.5469 20.8594 18.0469 20.4844 19.2656 19.2656C20.4844 18 20.8594 16.5469 20.9531 14.8594C21.0469 13.125 21.0469 7.92188 20.9531 6.1875ZM18.7031 16.6875C18.375 17.625 17.625 18.3281 16.7344 18.7031C15.3281 19.2656 12.0469 19.125 10.5469 19.125C9 19.125 5.71875 19.2656 4.35938 18.7031C3.42188 18.3281 2.71875 17.625 2.34375 16.6875C1.78125 15.3281 1.92188 12.0469 1.92188 10.5C1.92188 9 1.78125 5.71875 2.34375 4.3125C2.71875 3.42188 3.42188 2.71875 4.35938 2.34375C5.71875 1.78125 9 1.92188 10.5469 1.92188C12.0469 1.92188 15.3281 1.78125 16.7344 2.34375C17.625 2.67188 18.3281 3.42188 18.7031 4.3125C19.2656 5.71875 19.125 9 19.125 10.5C19.125 12.0469 19.2656 15.3281 18.7031 16.6875Z" fill="#F5F5F5"/>
</svg>
