<svg width="112" height="112" viewBox="0 0 112 112" fill="none" xmlns="http://www.w3.org/2000/svg">
<path d="M56 1C86.2254 1 111 25.7742 111 56C111 70.9867 104.736 84.5825 94.959 94.5039L56 107.663L17.04 94.5039C7.2634 84.5826 1 70.9864 1 56C1 25.7742 25.7742 1 56 1ZM56 32.0312C42.7821 32.0312 32.0312 42.7821 32.0312 56C32.0312 69.2179 42.7821 79.9688 56 79.9688C69.2179 79.9688 79.9688 69.2179 79.9688 56C79.9688 42.7821 69.2179 32.0312 56 32.0312Z" fill="url(#paint0_linear_652_91)" stroke="url(#paint1_linear_652_91)" stroke-width="2"/>
<path d="M56 95.3749C46.1563 95.3749 46.1563 88.8124 36.3125 88.8124C26.4688 88.8124 26.4688 95.4406 16.4936 95.3749C26.6 105.481 40.5781 112 56 112C71.4219 112 85.3998 105.481 95.5065 95.3749C85.5313 95.4406 85.5969 88.8124 75.6875 88.8124C65.8438 88.8124 65.8438 95.3749 56 95.3749ZM25.5074 66.8051C24.2257 65.5234 22.1491 65.5234 20.8675 66.8051C19.5858 68.0867 19.5858 70.1633 20.8675 71.445L27.43 78.0075C28.7118 79.2891 30.7882 79.2891 32.0699 78.0075C33.3515 76.7258 33.3515 74.6492 32.0699 73.3676L25.5074 66.8051ZM56 26.4687H69.125C70.9387 26.4687 72.4063 25.0011 72.4063 23.1874C72.4063 21.3738 70.9387 19.9062 69.125 19.9062H56C54.1864 19.9062 52.7188 21.3738 52.7188 23.1874C52.7188 25.0011 54.1864 26.4687 56 26.4687ZM84.5699 78.0073L91.1324 71.4448C92.414 70.1631 92.414 68.0865 91.1324 66.8049C89.8507 65.5232 87.7741 65.5232 86.4925 66.8049L79.93 73.3674C78.6483 74.649 78.6483 76.7256 79.93 78.0073C81.2118 79.2891 83.2882 79.2891 84.5699 78.0073ZM86.4927 45.1948C87.7746 46.4764 89.8509 46.4764 91.1326 45.1948C92.4142 43.9131 92.4142 41.8365 91.1326 40.5549L84.5701 33.9924C83.2884 32.7107 81.2118 32.7107 79.9302 33.9924C78.6485 35.274 78.6485 37.3506 79.9302 38.6323L86.4927 45.1948ZM25.5074 45.1948L32.0699 38.6323C33.3515 37.3506 33.3515 35.274 32.0699 33.9924C30.7882 32.7107 28.7116 32.7107 27.43 33.9924L20.8675 40.5549C19.5858 41.8365 19.5858 43.9131 20.8675 45.1948C22.1493 46.4767 24.2257 46.4767 25.5074 45.1948ZM42.8752 26.3125C44.6874 26.3125 46.1565 24.8434 46.1565 23.0312C46.1565 21.2191 44.6874 19.75 42.8752 19.75C41.0631 19.75 39.594 21.2191 39.594 23.0312C39.594 24.8434 41.0629 26.3125 42.8752 26.3125ZM19.9065 55.8437C19.9065 54.0316 18.4374 52.5625 16.6252 52.5625C14.8131 52.5625 13.344 54.0316 13.344 55.8437C13.344 57.6559 14.8131 59.125 16.6252 59.125C18.4374 59.125 19.9065 57.6559 19.9065 55.8437ZM95.3752 52.5625C93.5631 52.5625 92.094 54.0316 92.094 55.8437C92.094 57.6559 93.5631 59.125 95.3752 59.125C97.1874 59.125 98.6565 57.6559 98.6565 55.8437C98.6565 54.0316 97.1874 52.5625 95.3752 52.5625Z" fill="white"/>
<defs>
<linearGradient id="paint0_linear_652_91" x1="56" y1="-41.5486" x2="56" y2="145.074" gradientUnits="userSpaceOnUse">
<stop offset="0.630208" stop-color="#FFAE00"/>
<stop offset="1" stop-color="#FFCD1E"/>
</linearGradient>
<linearGradient id="paint1_linear_652_91" x1="56" y1="0" x2="56" y2="108.719" gradientUnits="userSpaceOnUse">
<stop stop-color="#FF9F00"/>
<stop offset="1" stop-color="#FFB800"/>
</linearGradient>
</defs>
</svg>
