<svg width="192" height="192" viewBox="0 0 192 192" fill="none" xmlns="http://www.w3.org/2000/svg">
<g filter="url(#filter0_dd_403_1202)">
<path d="M96 21C126.225 21 151 45.7742 151 76C151 90.9867 144.736 104.583 134.959 114.504L96 127.663L57.04 114.504C47.2634 104.583 41 90.9864 41 76C41 45.7742 65.7742 21 96 21ZM96 52.0312C82.7821 52.0312 72.0312 62.7821 72.0312 76C72.0312 89.2179 82.7821 99.9688 96 99.9688C109.218 99.9688 119.969 89.2179 119.969 76C119.969 62.7821 109.218 52.0312 96 52.0312Z" fill="url(#paint0_linear_403_1202)" stroke="url(#paint1_linear_403_1202)" stroke-width="2"/>
<path d="M96 21C126.225 21 151 45.7742 151 76C151 90.9867 144.736 104.583 134.959 114.504L96 127.663L57.04 114.504C47.2634 104.583 41 90.9865 41 76C41 45.7742 65.7742 21 96 21ZM96 52.0313C82.7821 52.0313 72.0312 62.7821 72.0312 76C72.0312 89.2179 82.7821 99.9688 96 99.9688C109.218 99.9688 119.969 89.2179 119.969 76C119.969 62.7821 109.218 52.0313 96 52.0313Z" fill="url(#paint2_linear_403_1202)" stroke="url(#paint3_linear_403_1202)" stroke-width="2"/>
<path d="M96 115.375C86.1562 115.375 86.1562 108.812 76.3125 108.812C66.4687 108.812 66.4687 115.441 56.4935 115.375C66.6 125.481 80.5781 132 96 132C111.422 132 125.4 125.481 135.506 115.375C125.531 115.441 125.597 108.812 115.687 108.812C105.844 108.812 105.844 115.375 96 115.375ZM65.5073 86.8051C64.2257 85.5235 62.1491 85.5235 60.8674 86.8051C59.5858 88.0868 59.5858 90.1634 60.8674 91.445L67.4299 98.0075C68.7118 99.2892 70.7882 99.2892 72.0698 98.0075C73.3515 96.7259 73.3515 94.6493 72.0698 93.3676L65.5073 86.8051ZM96 46.4687H109.125C110.939 46.4687 112.406 45.0011 112.406 43.1875C112.406 41.3738 110.939 39.9062 109.125 39.9062H96C94.1863 39.9062 92.7187 41.3738 92.7187 43.1875C92.7187 45.0011 94.1863 46.4687 96 46.4687ZM124.57 98.0073L131.132 91.4448C132.414 90.1631 132.414 88.0866 131.132 86.8049C129.851 85.5232 127.774 85.5232 126.492 86.8049L119.93 93.3674C118.648 94.6491 118.648 96.7256 119.93 98.0073C121.212 99.2892 123.288 99.2892 124.57 98.0073ZM126.493 65.1948C127.775 66.4765 129.851 66.4765 131.133 65.1948C132.414 63.9132 132.414 61.8366 131.133 60.5549L124.57 53.9924C123.288 52.7107 121.212 52.7107 119.93 53.9924C118.648 55.2741 118.648 57.3507 119.93 58.6323L126.493 65.1948ZM65.5073 65.1948L72.0698 58.6323C73.3515 57.3507 73.3515 55.2741 72.0698 53.9924C70.7882 52.7107 68.7116 52.7107 67.4299 53.9924L60.8674 60.5549C59.5858 61.8366 59.5858 63.9132 60.8674 65.1948C62.1493 66.4767 64.2257 66.4767 65.5073 65.1948ZM82.8752 46.3125C84.6873 46.3125 86.1565 44.8434 86.1565 43.0313C86.1565 41.2192 84.6873 39.75 82.8752 39.75C81.0631 39.75 79.594 41.2192 79.594 43.0313C79.594 44.8434 81.0629 46.3125 82.8752 46.3125ZM59.9065 75.8438C59.9065 74.0317 58.4373 72.5625 56.6252 72.5625C54.8131 72.5625 53.344 74.0317 53.344 75.8438C53.344 77.6559 54.8131 79.125 56.6252 79.125C58.4373 79.125 59.9065 77.6559 59.9065 75.8438ZM135.375 72.5625C133.563 72.5625 132.094 74.0317 132.094 75.8438C132.094 77.6559 133.563 79.125 135.375 79.125C137.187 79.125 138.656 77.6559 138.656 75.8438C138.656 74.0317 137.187 72.5625 135.375 72.5625Z" fill="white"/>
</g>
<defs>
<filter id="filter0_dd_403_1202" x="0" y="0" width="192" height="192" filterUnits="userSpaceOnUse" color-interpolation-filters="sRGB">
<feFlood flood-opacity="0" result="BackgroundImageFix"/>
<feColorMatrix in="SourceAlpha" type="matrix" values="0 0 0 0 0 0 0 0 0 0 0 0 0 0 0 0 0 0 127 0" result="hardAlpha"/>
<feOffset dy="20"/>
<feGaussianBlur stdDeviation="20"/>
<feColorMatrix type="matrix" values="0 0 0 0 1 0 0 0 0 0.680498 0 0 0 0 0 0 0 0 0.29 0"/>
<feBlend mode="normal" in2="BackgroundImageFix" result="effect1_dropShadow_403_1202"/>
<feColorMatrix in="SourceAlpha" type="matrix" values="0 0 0 0 0 0 0 0 0 0 0 0 0 0 0 0 0 0 127 0" result="hardAlpha"/>
<feOffset dy="5"/>
<feGaussianBlur stdDeviation="5"/>
<feColorMatrix type="matrix" values="0 0 0 0 1 0 0 0 0 0.680498 0 0 0 0 0 0 0 0 0.26 0"/>
<feBlend mode="normal" in2="effect1_dropShadow_403_1202" result="effect2_dropShadow_403_1202"/>
<feBlend mode="normal" in="SourceGraphic" in2="effect2_dropShadow_403_1202" result="shape"/>
</filter>
<linearGradient id="paint0_linear_403_1202" x1="96" y1="-21.5486" x2="96" y2="165.074" gradientUnits="userSpaceOnUse">
<stop stop-color="#FFAE00"/>
<stop offset="1" stop-color="#FFCD1E"/>
</linearGradient>
<linearGradient id="paint1_linear_403_1202" x1="96" y1="20" x2="96" y2="128.719" gradientUnits="userSpaceOnUse">
<stop stop-color="#FF9F00"/>
<stop offset="1" stop-color="#FFB800"/>
</linearGradient>
<linearGradient id="paint2_linear_403_1202" x1="96" y1="-21.5485" x2="96" y2="165.074" gradientUnits="userSpaceOnUse">
<stop offset="0.630208" stop-color="#FFAE00"/>
<stop offset="1" stop-color="#FFCD1E"/>
</linearGradient>
<linearGradient id="paint3_linear_403_1202" x1="96" y1="20" x2="96" y2="128.719" gradientUnits="userSpaceOnUse">
<stop stop-color="#FF9F00"/>
<stop offset="1" stop-color="#FFB800"/>
</linearGradient>
</defs>
</svg>
