<svg width="73" height="112" viewBox="0 0 73 112" fill="none" xmlns="http://www.w3.org/2000/svg">
<path d="M3.28125 1H68.9062C70.1676 1 71.1873 2.01982 71.1875 3.28125V108.718C71.1875 109.64 70.6299 110.474 69.7803 110.825L69.7754 110.827C68.9536 111.173 67.9586 110.995 67.2939 110.33C64.5605 107.597 60.1281 107.597 57.3945 110.33C56.5034 111.221 55.0601 111.221 54.1689 110.33C51.4355 107.597 47.0031 107.597 44.2695 110.33C43.3784 111.221 41.9351 111.221 41.0439 110.33C38.3105 107.597 33.8781 107.597 31.1445 110.33C30.2534 111.221 28.8101 111.221 27.9189 110.33C25.1855 107.597 20.7531 107.597 18.0195 110.33C17.1284 111.221 15.6851 111.221 14.7939 110.33C12.0605 107.597 7.62815 107.597 4.89453 110.33C4.23792 110.987 3.25257 111.178 2.41113 110.826L2.40723 110.824C1.55772 110.473 1.00014 109.64 1 108.718V3.28125C1 2.01988 2.01988 1 3.28125 1Z" fill="url(#paint0_linear_403_975)" stroke="url(#paint1_linear_403_975)" stroke-width="2"/>
<defs>
<linearGradient id="paint0_linear_403_975" x1="36.0939" y1="-42.8026" x2="36.0939" y2="149.452" gradientUnits="userSpaceOnUse">
<stop offset="0.630208" stop-color="#FFAE00"/>
<stop offset="1" stop-color="#FFCD1E"/>
</linearGradient>
<linearGradient id="paint1_linear_403_975" x1="36.0939" y1="0" x2="36.0939" y2="112" gradientUnits="userSpaceOnUse">
<stop stop-color="#FF9F00"/>
<stop offset="1" stop-color="#FFB800"/>
</linearGradient>
</defs>
</svg>
