<svg width="272" height="37" viewBox="0 0 272 37" fill="none" xmlns="http://www.w3.org/2000/svg">
<path d="M2.79992 30V18.147H0.746645V14.756L2.79992 14.6005V13.7605C2.79992 12.9516 2.89325 12.1842 3.07991 11.4583C3.28731 10.7324 3.61915 10.0998 4.07544 9.5606C4.53172 9.02136 5.12281 8.59619 5.84872 8.28508C6.57462 7.97398 7.45608 7.81843 8.49308 7.81843C9.13603 7.81843 9.71675 7.88065 10.2353 8.00509C10.7745 8.12953 11.2204 8.25397 11.573 8.37841L10.733 11.7383C10.1523 11.5309 9.62342 11.4272 9.1464 11.4272C8.58641 11.4272 8.15087 11.6035 7.83977 11.9561C7.52867 12.2879 7.37312 12.8479 7.37312 13.636V14.5693H10.1419V18.147H7.37312V30H2.79992ZM18.1701 30.3733C17.1953 30.3733 16.2516 30.197 15.339 29.8444C14.4265 29.4711 13.6176 28.9423 12.9124 28.2578C12.228 27.5734 11.6784 26.7334 11.2636 25.7379C10.8488 24.7216 10.6414 23.5706 10.6414 22.2847C10.6414 20.9988 10.8488 19.8581 11.2636 18.8625C11.6784 17.8463 12.228 16.9959 12.9124 16.3115C13.6176 15.6271 14.4265 15.1086 15.339 14.756C16.2516 14.3827 17.1953 14.196 18.1701 14.196C19.1448 14.196 20.0781 14.3827 20.97 14.756C21.8825 15.1086 22.681 15.6271 23.3655 16.3115C24.0706 16.9959 24.6306 17.8463 25.0454 18.8625C25.4602 19.8581 25.6676 20.9988 25.6676 22.2847C25.6676 23.5706 25.4602 24.7216 25.0454 25.7379C24.6306 26.7334 24.0706 27.5734 23.3655 28.2578C22.681 28.9423 21.8825 29.4711 20.97 29.8444C20.0781 30.197 19.1448 30.3733 18.1701 30.3733ZM18.1701 26.6712C19.1034 26.6712 19.8085 26.2771 20.2855 25.489C20.7626 24.7009 21.0011 23.6328 21.0011 22.2847C21.0011 20.9366 20.7626 19.8684 20.2855 19.0803C19.8085 18.2922 19.1034 17.8981 18.1701 17.8981C17.216 17.8981 16.5005 18.2922 16.0235 19.0803C15.5672 19.8684 15.339 20.9366 15.339 22.2847C15.339 23.6328 15.5672 24.7009 16.0235 25.489C16.5005 26.2771 17.216 26.6712 18.1701 26.6712ZM34.6487 30.3733C33.674 30.3733 32.7303 30.197 31.8177 29.8444C30.9051 29.4711 30.0963 28.9423 29.3911 28.2578C28.7067 27.5734 28.1571 26.7334 27.7423 25.7379C27.3275 24.7216 27.1201 23.5706 27.1201 22.2847C27.1201 20.9988 27.3275 19.8581 27.7423 18.8625C28.1571 17.8463 28.7067 16.9959 29.3911 16.3115C30.0963 15.6271 30.9051 15.1086 31.8177 14.756C32.7303 14.3827 33.674 14.196 34.6487 14.196C35.6235 14.196 36.5568 14.3827 37.4487 14.756C38.3612 15.1086 39.1597 15.6271 39.8441 16.3115C40.5493 16.9959 41.1093 17.8463 41.5241 18.8625C41.9389 19.8581 42.1463 20.9988 42.1463 22.2847C42.1463 23.5706 41.9389 24.7216 41.5241 25.7379C41.1093 26.7334 40.5493 27.5734 39.8441 28.2578C39.1597 28.9423 38.3612 29.4711 37.4487 29.8444C36.5568 30.197 35.6235 30.3733 34.6487 30.3733ZM34.6487 26.6712C35.582 26.6712 36.2872 26.2771 36.7642 25.489C37.2413 24.7009 37.4798 23.6328 37.4798 22.2847C37.4798 20.9366 37.2413 19.8684 36.7642 19.0803C36.2872 18.2922 35.582 17.8981 34.6487 17.8981C33.6947 17.8981 32.9792 18.2922 32.5021 19.0803C32.0459 19.8684 31.8177 20.9366 31.8177 22.2847C31.8177 23.6328 32.0459 24.7009 32.5021 25.489C32.9792 26.2771 33.6947 26.6712 34.6487 26.6712ZM50.0075 30.3733C49.0534 30.3733 48.1823 30.1867 47.3942 29.8133C46.6268 29.44 45.9631 28.9111 45.4031 28.2267C44.8639 27.5216 44.4387 26.6712 44.1276 25.6757C43.8373 24.6802 43.6921 23.5498 43.6921 22.2847C43.6921 21.0195 43.8684 19.8892 44.221 18.8937C44.5943 17.8981 45.0713 17.0582 45.652 16.3737C46.2535 15.6686 46.9379 15.1293 47.7053 14.756C48.4934 14.3827 49.2919 14.196 50.1008 14.196C50.9719 14.196 51.6874 14.3412 52.2474 14.6316C52.8074 14.9219 53.357 15.316 53.8962 15.8138L53.7096 13.4494V8.19175H58.2828V30H54.5495L54.2384 28.4756H54.114C53.5748 29.0148 52.9422 29.4711 52.2163 29.8444C51.4904 30.197 50.7541 30.3733 50.0075 30.3733ZM51.1896 26.6401C51.6874 26.6401 52.1333 26.5364 52.5274 26.329C52.9422 26.1216 53.3362 25.7586 53.7096 25.2401V18.9248C53.2948 18.5514 52.8696 18.2922 52.434 18.147C51.9985 18.0018 51.5733 17.9292 51.1585 17.9292C50.4326 17.9292 49.7897 18.2818 49.2297 18.987C48.6697 19.6714 48.3897 20.7499 48.3897 22.2225C48.3897 23.7572 48.6282 24.8772 49.1053 25.5824C49.603 26.2875 50.2978 26.6401 51.1896 26.6401Z" fill="#F17228"/>
<path d="M65.3796 28H70.9483L72.1616 22.058C72.4416 20.6269 72.6283 19.258 72.8772 17.4848H73.0016C73.2505 19.258 73.4994 20.6269 73.7793 22.058L75.0238 28H80.748L84.3879 12.5382H79.9392L78.5703 19.5069C78.2903 21.0002 78.1659 22.4935 77.8859 24.1734H77.7615C77.4815 22.4935 77.2015 21.0002 76.8593 19.5069L75.2104 12.5382H70.9483L69.3617 19.5069C69.0195 20.9691 68.7706 22.4935 68.4906 24.1734H68.3662C68.1484 22.4935 67.9617 21.0002 67.7129 19.5069L66.3129 12.5382H61.553L65.3796 28ZM90.0954 28.3733C91.8376 28.3733 93.2376 27.5956 94.5131 26.4445H94.6375L94.9797 28H98.8996V19.2269C98.8996 14.3737 96.6597 12.1649 92.6776 12.1649C90.251 12.1649 88.0422 12.9427 86.02 14.1871L87.6999 17.2981C89.2555 16.427 90.4999 15.9915 91.7443 15.9915C93.3309 15.9915 93.9842 16.7381 94.1086 18.0136C88.011 18.6358 85.4911 20.4091 85.4911 23.6757C85.4911 26.2578 87.2644 28.3733 90.0954 28.3733ZM91.7443 24.6401C90.6865 24.6401 90.0954 24.2046 90.0954 23.3024C90.0954 22.2135 91.0287 21.3735 94.1086 20.9691V23.4268C93.362 24.1734 92.7087 24.6401 91.7443 24.6401ZM109.559 28.3054C108.405 28.3054 107.319 28.1358 106.301 27.7964C105.283 27.44 104.392 26.914 103.628 26.2182C102.882 25.5055 102.288 24.6231 101.847 23.571C101.422 22.502 101.21 21.2632 101.21 19.8548C101.21 18.4633 101.431 17.233 101.872 16.164C102.313 15.078 102.907 14.1701 103.654 13.4404C104.417 12.6938 105.3 12.1253 106.301 11.735C107.302 11.3447 108.354 11.1496 109.457 11.1496C110.679 11.1496 111.731 11.3702 112.614 11.8114C113.513 12.2356 114.26 12.7447 114.854 13.3386L112.563 16.1385C112.155 15.7822 111.723 15.4937 111.265 15.2731C110.823 15.0355 110.272 14.9167 109.61 14.9167C109.05 14.9167 108.532 15.027 108.057 15.2476C107.582 15.4682 107.166 15.7822 106.81 16.1894C106.454 16.5967 106.174 17.0973 105.97 17.6912C105.783 18.2851 105.69 18.9554 105.69 19.7021C105.69 21.2632 106.038 22.4596 106.734 23.291C107.429 24.1225 108.524 24.5383 110.017 24.5383C110.255 24.5383 110.484 24.5128 110.705 24.4619C110.942 24.411 111.137 24.3347 111.29 24.2328V21.942H108.846V18.3785H115.159V26.2691C114.565 26.8291 113.776 27.3127 112.792 27.72C111.808 28.1103 110.73 28.3054 109.559 28.3054ZM124.685 28.3733C128.636 28.3733 132.276 25.3867 132.276 20.2536C132.276 15.1204 128.636 12.1649 124.685 12.1649C120.765 12.1649 117.126 15.1204 117.126 20.2536C117.126 25.3867 120.765 28.3733 124.685 28.3733ZM124.685 24.4845C122.881 24.4845 122.041 22.8357 122.041 20.2536C122.041 17.7025 122.881 16.0226 124.685 16.0226C126.49 16.0226 127.33 17.7025 127.33 20.2536C127.33 22.8357 126.49 24.4845 124.685 24.4845ZM134.536 28H139.327V17.6403C140.291 16.7692 140.945 16.2403 142.034 16.2403C143.278 16.2403 143.838 16.8937 143.838 19.0403V28H148.66V18.4181C148.66 14.5604 147.229 12.1649 143.869 12.1649C141.754 12.1649 140.198 13.2227 138.923 14.4671H138.798L138.456 12.5382H134.536V28Z" fill="#FFB30E"/>
</svg>
